<svg width="12" height="12" viewBox="0 0 12 12" fill="none" xmlns="http://www.w3.org/2000/svg">
<path d="M11.7396 5.21011C11.9758 4.97992 12.0592 4.64208 11.9573 4.32802C11.8552 4.01397 11.5892 3.78978 11.2624 3.74221L8.35684 3.32002C8.23309 3.302 8.12617 3.22439 8.0709 3.11218L6.77191 0.47961C6.62606 0.183818 6.33003 0 6.00012 0C5.67045 0 5.37441 0.183818 5.22856 0.47961L3.92934 3.11242C3.87407 3.22463 3.7669 3.30224 3.64316 3.32027L0.737625 3.74245C0.411077 3.78978 0.14484 4.01421 0.0427191 4.32826C-0.059162 4.64232 0.0242171 4.98016 0.260418 5.21035L2.36268 7.25951C2.4523 7.34697 2.49339 7.47288 2.47225 7.59591L1.9763 10.4894C1.93232 10.7441 1.99912 10.9919 2.16396 11.1872C2.4201 11.4917 2.86728 11.5844 3.22482 11.3965L5.82327 10.0302C5.93188 9.97329 6.0686 9.97377 6.17697 10.0302L8.77566 11.3965C8.90205 11.4631 9.03685 11.4967 9.17597 11.4967C9.42995 11.4967 9.67072 11.3838 9.83628 11.1872C10.0014 10.9919 10.0679 10.7436 10.0239 10.4894L9.52775 7.59591C9.50661 7.47264 9.54769 7.34697 9.63732 7.25951L11.7396 5.21011Z" fill="#151515"/>
</svg>
